<?xml version="1.0" encoding="UTF-8" standalone="no"?>
<!-- Generator: Adobe Illustrator 17.0.0, SVG Export Plug-In . SVG Version: 6.00 Build 0)  -->

<svg
   xmlns:dc="http://purl.org/dc/elements/1.1/"
   xmlns:cc="http://creativecommons.org/ns#"
   xmlns:rdf="http://www.w3.org/1999/02/22-rdf-syntax-ns#"
   xmlns:svg="http://www.w3.org/2000/svg"
   xmlns="http://www.w3.org/2000/svg"
   xmlns:sodipodi="http://sodipodi.sourceforge.net/DTD/sodipodi-0.dtd"
   xmlns:inkscape="http://www.inkscape.org/namespaces/inkscape"
   version="1.1"
   id="Layer_1"
   x="0px"
   y="0px"
   width="458.5"
   height="140.8"
   viewBox="0 0 458.5 140.8"
   enable-background="new 0 0 612 792"
   xml:space="preserve"
   inkscape:version="0.91 r13725"
   sodipodi:docname="iam-trimmed.svg"><metadata
     id="metadata9428"><rdf:RDF><cc:Work
         rdf:about=""><dc:format>image/svg+xml</dc:format><dc:type
           rdf:resource="http://purl.org/dc/dcmitype/StillImage" /><dc:title></dc:title></cc:Work></rdf:RDF></metadata><defs
     id="defs9426" /><sodipodi:namedview
     pagecolor="#ffffff"
     bordercolor="#666666"
     borderopacity="1"
     objecttolerance="10"
     gridtolerance="10"
     guidetolerance="10"
     inkscape:pageopacity="0"
     inkscape:pageshadow="2"
     inkscape:window-width="1920"
     inkscape:window-height="1061"
     id="namedview9424"
     showgrid="false"
     inkscape:zoom="1.6856283"
     inkscape:cx="53.824898"
     inkscape:cy="-0.50881399"
     inkscape:window-x="0"
     inkscape:window-y="0"
     inkscape:window-maximized="0"
     inkscape:current-layer="layer2"
     fit-margin-top="20"
     fit-margin-left="10"
     fit-margin-right="10"
     fit-margin-bottom="20" /><g
     inkscape:groupmode="layer"
     id="layer1"
     inkscape:label="BG"
     style="display:none"
     transform="translate(-61.90625,-39.4)"><rect
       style="opacity:1;fill:#696969;fill-opacity:1"
       id="rect3960"
       width="646.04993"
       height="294.25229"
       x="-26.103025"
       y="-12.115524" /></g><g
     inkscape:groupmode="layer"
     id="layer2"
     inkscape:label="iam"
     style="display:inline"
     transform="translate(-61.90625,-39.4)"><g
       id="g8816"
       transform="translate(-10.84375,-7.75)"><text
         transform="translate(106.562,161.4)"
         font-size="12"
         id="text8818"
         style="font-style:normal;font-variant:normal;font-weight:normal;font-stretch:normal;font-size:12.00000095px;line-height:125%;font-family:'Myriad Pro';-inkscape-font-specification:'Myriad Pro, Normal';text-align:start;writing-mode:lr-tb;text-anchor:start;fill:#ffffff"
         sodipodi:linespacing="125%">Lexical Representation</text>
<path
         stroke-miterlimit="10"
         d="m 241.5,156.95 c 0,5.661 -4.589,10.25 -10.25,10.25 l -137.5,0 c -5.661,0 -10.25,-4.589 -10.25,-10.25 l 0,0 c 0,-5.661 4.589,-10.25 10.25,-10.25 l 137.5,0 c 5.661,0 10.25,4.589 10.25,10.25 l 0,0 z"
         id="path8820"
         style="fill:none;stroke:#ffffff;stroke-width:1.5;stroke-miterlimit:10;stroke-opacity:1"
         inkscape:connector-curvature="0" /></g><g
       id="g8822"
       transform="translate(-10.84375,-7.75)"><text
         transform="translate(120.7121,120.1)"
         font-size="12"
         id="text8824"
         style="font-style:normal;font-variant:normal;font-weight:normal;font-stretch:normal;font-size:12.00000095px;line-height:125%;font-family:'Myriad Pro';-inkscape-font-specification:'Myriad Pro, Normal';text-align:start;writing-mode:lr-tb;text-anchor:start;fill:#ffffff"
         sodipodi:linespacing="125%">Syntactic Representation</text>
<path
         stroke-miterlimit="10"
         d="m 261.5,117.55 c 0,5.661 -4.589,10.25 -10.25,10.25 l -137.5,0 c -5.661,0 -10.25,-4.589 -10.25,-10.25 l 0,0 c 0,-5.661 4.589,-10.25 10.25,-10.25 l 137.5,0 c 5.661,0 10.25,4.589 10.25,10.25 l 0,0 z"
         id="path8826"
         style="fill:none;stroke:#ffffff;stroke-width:1.5;stroke-miterlimit:10;stroke-opacity:1"
         inkscape:connector-curvature="0" /></g><g
       id="g8828"
       transform="translate(-10.84375,-7.75)"><text
         transform="translate(100.196,81.8)"
         font-size="12"
         id="text8830"
         style="font-style:normal;font-variant:normal;font-weight:normal;font-stretch:normal;font-size:12.00000095px;line-height:125%;font-family:'Myriad Pro';-inkscape-font-specification:'Myriad Pro, Normal';text-align:start;writing-mode:lr-tb;text-anchor:start;fill:#ffffff"
         sodipodi:linespacing="125%">Semantic Representation</text>
<path
         stroke-miterlimit="10"
         d="m 241.5,78.15 c 0,5.661 -4.589,10.25 -10.25,10.25 l -137.5,0 C 88.089,88.4 83.5,83.811 83.5,78.15 l 0,0 c 0,-5.661 4.589,-10.25 10.25,-10.25 l 137.5,0 c 5.661,0 10.25,4.589 10.25,10.25 l 0,0 z"
         id="path8832"
         style="fill:none;stroke:#ffffff;stroke-width:1.5;stroke-miterlimit:10;stroke-opacity:1"
         inkscape:connector-curvature="0" /></g><g
       id="g8860"
       transform="translate(-10.84375,-7.75)"><text
         transform="translate(385.562,161.4)"
         font-size="12"
         id="text8862"
         style="font-style:normal;font-variant:normal;font-weight:normal;font-stretch:normal;font-size:12.00000095px;line-height:125%;font-family:'Myriad Pro';-inkscape-font-specification:'Myriad Pro, Normal';text-align:start;writing-mode:lr-tb;text-anchor:start;fill:#ffffff"
         sodipodi:linespacing="125%">Lexical Representation</text>
<path
         stroke-miterlimit="10"
         d="m 520.5,156.95 c 0,5.661 -4.589,10.25 -10.25,10.25 l -137.5,0 c -5.661,0 -10.25,-4.589 -10.25,-10.25 l 0,0 c 0,-5.661 4.589,-10.25 10.25,-10.25 l 137.5,0 c 5.661,0 10.25,4.589 10.25,10.25 l 0,0 z"
         id="path8864"
         style="fill:none;stroke:#ffffff;stroke-width:1.5;stroke-miterlimit:10;stroke-opacity:1"
         inkscape:connector-curvature="0" /></g><g
       id="g8866"
       transform="translate(-10.84375,-7.75)"><text
         transform="translate(359.7121,120.1)"
         font-size="12"
         id="text8868"
         style="font-style:normal;font-variant:normal;font-weight:normal;font-stretch:normal;font-size:12.00000095px;line-height:125%;font-family:'Myriad Pro';-inkscape-font-specification:'Myriad Pro, Normal';text-align:start;writing-mode:lr-tb;text-anchor:start;fill:#ffffff"
         sodipodi:linespacing="125%">Syntactic Representation</text>
<path
         stroke-miterlimit="10"
         d="m 500.5,117.55 c 0,5.661 -4.589,10.25 -10.25,10.25 l -137.5,0 c -5.661,0 -10.25,-4.589 -10.25,-10.25 l 0,0 c 0,-5.661 4.589,-10.25 10.25,-10.25 l 137.5,0 c 5.661,0 10.25,4.589 10.25,10.25 l 0,0 z"
         id="path8870"
         style="fill:none;stroke:#ffffff;stroke-width:1.5;stroke-miterlimit:10;stroke-opacity:1"
         inkscape:connector-curvature="0" /></g><g
       id="g8872"
       transform="translate(-10.84375,-7.75)"><text
         transform="translate(379.196,81.8)"
         font-size="12"
         id="text8874"
         style="font-style:normal;font-variant:normal;font-weight:normal;font-stretch:normal;font-size:12.00000095px;line-height:125%;font-family:'Myriad Pro';-inkscape-font-specification:'Myriad Pro, Normal';text-align:start;writing-mode:lr-tb;text-anchor:start;fill:#ffffff"
         sodipodi:linespacing="125%">Semantic Representation</text>
<path
         stroke-miterlimit="10"
         d="m 520.5,78.15 c 0,5.661 -4.589,10.25 -10.25,10.25 l -137.5,0 c -5.661,0 -10.25,-4.589 -10.25,-10.25 l 0,0 c 0,-5.661 4.589,-10.25 10.25,-10.25 l 137.5,0 c 5.661,0 10.25,4.589 10.25,10.25 l 0,0 z"
         id="path8876"
         style="fill:none;stroke:#ffffff;stroke-width:1.5;stroke-miterlimit:10;stroke-opacity:1"
         inkscape:connector-curvature="0" /></g><g
       id="g8956"
       transform="translate(-10.84375,-7.75)"><g
         id="g8958"><g
           id="g8960"><line
             stroke-miterlimit="10"
             x1="251.021"
             y1="83.5"
             x2="348.939"
             y2="83.5"
             id="line8962"
             style="fill:none;stroke:#ffffff;stroke-miterlimit:10;stroke-opacity:1" /><g
             id="g8964"><polygon
               points="346.051,87.565 348.412,83.5 346.051,79.436 356,83.5 "
               id="polygon8966"
               style="fill:#ffffff" /></g></g></g><g
         id="g8968"><g
           id="g8970"><line
             stroke-miterlimit="10"
             x1="352.979"
             y1="73.5"
             x2="255.061"
             y2="73.5"
             id="line8972"
             style="fill:none;stroke:#ffffff;stroke-miterlimit:10;stroke-opacity:1" /><g
             id="g8974"><polygon
               points="257.949,69.435 255.588,73.5 257.949,77.564 248,73.5 "
               id="polygon8976"
               style="fill:#ffffff" /></g></g></g></g><g
       id="g8978"
       transform="translate(-10.84375,-7.75)"><g
         id="g8980"><g
           id="g8982"><line
             stroke-miterlimit="10"
             x1="269"
             y1="123.5"
             x2="331.439"
             y2="123.5"
             id="line8984"
             style="fill:none;stroke:#ffffff;stroke-miterlimit:10;stroke-opacity:1" /><g
             id="g8986"><polygon
               points="328.551,127.565 330.912,123.5 328.551,119.436 338.5,123.5 "
               id="polygon8988"
               style="fill:#ffffff" /></g></g></g><g
         id="g8990"><g
           id="g8992"><line
             stroke-miterlimit="10"
             x1="336.5"
             y1="113.5"
             x2="274.061"
             y2="113.5"
             id="line8994"
             style="fill:none;stroke:#ffffff;stroke-miterlimit:10;stroke-opacity:1" /><g
             id="g8996"><polygon
               points="276.949,109.435 274.588,113.5 276.949,117.564 267,113.5 "
               id="polygon8998"
               style="fill:#ffffff" /></g></g></g></g><g
       id="g9000"
       transform="translate(-10.84375,-7.75)"><g
         id="g9002"><g
           id="g9004"><line
             stroke-miterlimit="10"
             x1="254.373"
             y1="162.5"
             x2="346.418"
             y2="162.5"
             id="line9006"
             style="fill:none;stroke:#ffffff;stroke-miterlimit:10;stroke-opacity:1" /><g
             id="g9008"><polygon
               points="343.53,166.565 345.891,162.5 343.53,158.436 353.479,162.5 "
               id="polygon9010"
               style="fill:#ffffff" /></g></g></g><g
         id="g9012"><g
           id="g9014"><line
             stroke-miterlimit="10"
             x1="350.62701"
             y1="152.5"
             x2="258.582"
             y2="152.5"
             id="line9016"
             style="fill:none;stroke:#ffffff;stroke-miterlimit:10;stroke-opacity:1" /><g
             id="g9018"><polygon
               points="261.47,148.435 259.109,152.5 261.47,156.564 251.521,152.5 "
               id="polygon9020"
               style="fill:#ffffff" /></g></g></g></g><g
       id="g9088"
       transform="translate(-10.84375,-7.75)"><g
         id="g9090"><g
           id="g9092"><line
             stroke-miterlimit="10"
             x1="184"
             y1="106.094"
             x2="184"
             y2="96.911003"
             id="line9094"
             style="fill:none;stroke:#ffffff;stroke-miterlimit:10;stroke-opacity:1" /><g
             id="g9096"><polygon
               points="188.065,99.799 184,97.438 179.936,99.799 184,89.85 "
               id="polygon9098"
               style="fill:#ffffff" /></g></g></g><g
         id="g9100"><g
           id="g9102"><line
             stroke-miterlimit="10"
             x1="172.75"
             y1="90.317001"
             x2="172.75"
             y2="99.500999"
             id="line9104"
             style="fill:none;stroke:#ffffff;stroke-miterlimit:10;stroke-opacity:1" /><g
             id="g9106"><polygon
               points="168.685,96.612 172.75,98.973 176.814,96.612 172.75,106.561 "
               id="polygon9108"
               style="fill:#ffffff" /></g></g></g></g><g
       id="g9110"
       transform="translate(-10.84375,-7.75)"><g
         id="g9112"><g
           id="g9114"><line
             stroke-miterlimit="10"
             x1="184"
             y1="145.09399"
             x2="184"
             y2="135.911"
             id="line9116"
             style="fill:none;stroke:#ffffff;stroke-miterlimit:10;stroke-opacity:1" /><g
             id="g9118"><polygon
               points="188.065,138.799 184,136.438 179.936,138.799 184,128.85 "
               id="polygon9120"
               style="fill:#ffffff" /></g></g></g><g
         id="g9122"><g
           id="g9124"><line
             stroke-miterlimit="10"
             x1="172.75"
             y1="129.317"
             x2="172.75"
             y2="138.50101"
             id="line9126"
             style="fill:none;stroke:#ffffff;stroke-miterlimit:10;stroke-opacity:1" /><g
             id="g9128"><polygon
               points="168.685,135.612 172.75,137.973 176.814,135.612 172.75,145.561 "
               id="polygon9130"
               style="fill:#ffffff" /></g></g></g></g><g
       id="g9198"
       transform="translate(-10.84375,-7.75)"><g
         id="g9200"><g
           id="g9202"><line
             stroke-miterlimit="10"
             x1="429"
             y1="106.094"
             x2="429"
             y2="96.911003"
             id="line9204"
             style="fill:none;stroke:#ffffff;stroke-miterlimit:10;stroke-opacity:1" /><g
             id="g9206"><polygon
               points="433.065,99.799 429,97.438 424.936,99.799 429,89.85 "
               id="polygon9208"
               style="fill:#ffffff" /></g></g></g><g
         id="g9210"><g
           id="g9212"><line
             stroke-miterlimit="10"
             x1="417.75"
             y1="90.317001"
             x2="417.75"
             y2="99.500999"
             id="line9214"
             style="fill:none;stroke:#ffffff;stroke-miterlimit:10;stroke-opacity:1" /><g
             id="g9216"><polygon
               points="413.685,96.612 417.75,98.973 421.814,96.612 417.75,106.561 "
               id="polygon9218"
               style="fill:#ffffff" /></g></g></g></g><g
       id="g9220"
       transform="translate(-10.84375,-7.75)"><g
         id="g9222"><g
           id="g9224"><line
             stroke-miterlimit="10"
             x1="429"
             y1="145.09399"
             x2="429"
             y2="135.911"
             id="line9226"
             style="fill:none;stroke:#ffffff;stroke-miterlimit:10;stroke-opacity:1" /><g
             id="g9228"><polygon
               points="433.065,138.799 429,136.438 424.936,138.799 429,128.85 "
               id="polygon9230"
               style="fill:#ffffff" /></g></g></g><g
         id="g9232"><g
           id="g9234"><line
             stroke-miterlimit="10"
             x1="417.75"
             y1="129.317"
             x2="417.75"
             y2="138.50101"
             id="line9236"
             style="fill:none;stroke:#ffffff;stroke-miterlimit:10;stroke-opacity:1" /><g
             id="g9238"><polygon
               points="413.685,135.612 417.75,137.973 421.814,135.612 417.75,145.561 "
               id="polygon9240"
               style="fill:#ffffff" /></g></g></g></g><g
       id="g9308"
       transform="translate(-10.84375,-7.75)"><g
         id="g9310"><g
           id="g9312"><line
             stroke-miterlimit="10"
             x1="308.92599"
             y1="110.497"
             x2="308.92599"
             y2="92.142998"
             id="line9314"
             style="fill:none;stroke:#ffffff;stroke-miterlimit:10;stroke-opacity:1" /><g
             id="g9316"><polygon
               points="312.991,95.032 308.926,92.671 304.862,95.032 308.926,85.083 "
               id="polygon9318"
               style="fill:#ffffff" /></g></g></g><g
         id="g9320"><g
           id="g9322"><line
             stroke-miterlimit="10"
             x1="300.75"
             y1="85.814003"
             x2="300.75"
             y2="104.167"
             id="line9324"
             style="fill:none;stroke:#ffffff;stroke-miterlimit:10;stroke-opacity:1" /><g
             id="g9326"><polygon
               points="296.685,101.279 300.75,103.64 304.814,101.279 300.75,111.228 "
               id="polygon9328"
               style="fill:#ffffff" /></g></g></g></g><g
       id="g9330"
       transform="translate(-10.84375,-7.75)"><g
         id="g9332"><g
           id="g9334"><line
             stroke-miterlimit="10"
             x1="308.92599"
             y1="150.49699"
             x2="308.92599"
             y2="132.14301"
             id="line9336"
             style="fill:none;stroke:#ffffff;stroke-miterlimit:10;stroke-opacity:1" /><g
             id="g9338"><polygon
               points="312.991,135.032 308.926,132.671 304.862,135.032 308.926,125.083 "
               id="polygon9340"
               style="fill:#ffffff" /></g></g></g><g
         id="g9342"><g
           id="g9344"><line
             stroke-miterlimit="10"
             x1="300.75"
             y1="125.814"
             x2="300.75"
             y2="144.16701"
             id="line9346"
             style="fill:none;stroke:#ffffff;stroke-miterlimit:10;stroke-opacity:1" /><g
             id="g9348"><polygon
               points="296.685,141.279 300.75,143.64 304.814,141.279 300.75,151.228 "
               id="polygon9350"
               style="fill:#ffffff" /></g></g></g></g><g
       id="g9396"
       transform="translate(-10.84375,-7.75)"><g
         id="g9398"><path
           stroke-miterlimit="10"
           d="m 97.984,97.498 c -7.926,9.293 -9.465,27.688 -2.171,39.171"
           id="path9400"
           style="fill:none;stroke:#ffffff;stroke-miterlimit:10;stroke-opacity:1"
           inkscape:connector-curvature="0" /><g
           id="g9402"><polygon
             points="93.275,96.347 97.688,97.968 98.466,102.604 103.528,93.123 "
             id="polygon9404"
             style="fill:#ffffff" /></g><g
           id="g9406"><polygon
             points="90.949,136.983 95.58,136.171 97.169,131.748 100.466,141.977 "
             id="polygon9408"
             style="fill:#ffffff" /></g></g></g><g
       id="g9410"
       transform="translate(-10.84375,-7.75)"><g
         id="g9412"><path
           stroke-miterlimit="10"
           d="m 505.651,137.602 c 7.926,-9.293 9.465,-27.688 2.171,-39.171"
           id="path9414"
           style="fill:none;stroke:#ffffff;stroke-miterlimit:10;stroke-opacity:1"
           inkscape:connector-curvature="0" /><g
           id="g9416"><polygon
             points="510.36,138.753 505.947,137.132 505.169,132.496 500.107,141.977 "
             id="polygon9418"
             style="fill:#ffffff" /></g><g
           id="g9420"
           style="fill:#ffffff"><polygon
             points="512.686,98.117 508.056,98.929 506.466,103.352 503.169,93.123 "
             id="polygon9422"
             style="fill:#ffffff" /></g></g></g></g></svg>