<?xml version="1.0" encoding="UTF-8" standalone="no"?>
<!-- Generator: Adobe Illustrator 17.0.0, SVG Export Plug-In . SVG Version: 6.00 Build 0)  -->

<svg
   xmlns:dc="http://purl.org/dc/elements/1.1/"
   xmlns:cc="http://creativecommons.org/ns#"
   xmlns:rdf="http://www.w3.org/1999/02/22-rdf-syntax-ns#"
   xmlns:svg="http://www.w3.org/2000/svg"
   xmlns="http://www.w3.org/2000/svg"
   xmlns:sodipodi="http://sodipodi.sourceforge.net/DTD/sodipodi-0.dtd"
   xmlns:inkscape="http://www.inkscape.org/namespaces/inkscape"
   version="1.1"
   id="Layer_1"
   x="0px"
   y="0px"
   width="612px"
   height="792px"
   viewBox="0 0 612 792"
   enable-background="new 0 0 612 792"
   xml:space="preserve"
   inkscape:version="0.91 r13725"
   sodipodi:docname="iam-opaque.svg"><metadata
     id="metadata9428"><rdf:RDF><cc:Work
         rdf:about=""><dc:format>image/svg+xml</dc:format><dc:type
           rdf:resource="http://purl.org/dc/dcmitype/StillImage" /><dc:title /></cc:Work></rdf:RDF></metadata><defs
     id="defs9426" /><sodipodi:namedview
     pagecolor="#ffffff"
     bordercolor="#666666"
     borderopacity="1"
     objecttolerance="10"
     gridtolerance="10"
     guidetolerance="10"
     inkscape:pageopacity="0"
     inkscape:pageshadow="2"
     inkscape:window-width="1920"
     inkscape:window-height="1061"
     id="namedview9424"
     showgrid="false"
     inkscape:zoom="2.3838384"
     inkscape:cx="255.3508"
     inkscape:cy="652.06855"
     inkscape:window-x="0"
     inkscape:window-y="0"
     inkscape:window-maximized="0"
     inkscape:current-layer="g8884" /><g
     opacity="0.4"
     id="g8810"
     style="opacity:1"><text
       transform="matrix(1 0 0 1 110.6381 200.7)"
       font-family="'MyriadPro-Regular'"
       font-size="12"
       id="text8812"
       style="-inkscape-font-specification:'Myriad Pro, Normal';font-family:'Myriad Pro';font-weight:normal;font-style:normal;font-stretch:normal;font-variant:normal;font-size:12.00000048px;text-anchor:start;text-align:start;writing-mode:lr;line-height:125%;"
       sodipodi:linespacing="125%">Phonological Representation</text>
<path
       fill="none"
       stroke="#000000"
       stroke-width="1.5"
       stroke-miterlimit="10"
       d="M261.5,196.35c0,5.661-4.589,10.25-10.25,10.25   h-137.5c-5.661,0-10.25-4.589-10.25-10.25l0,0c0-5.661,4.589-10.25,10.25-10.25h137.5C256.911,186.1,261.5,190.689,261.5,196.35   L261.5,196.35z"
       id="path8814"
       style="" /></g><g
     id="g8816"
     style=""><text
       transform="matrix(1 0 0 1 106.562 161.4)"
       font-family="'MyriadPro-Regular'"
       font-size="12"
       id="text8818"
       style="-inkscape-font-specification:'Myriad Pro, Normal';font-family:'Myriad Pro';font-weight:normal;font-style:normal;font-stretch:normal;font-variant:normal;font-size:12.00000048px;text-anchor:start;text-align:start;writing-mode:lr;line-height:125%;"
       sodipodi:linespacing="125%">Lexical Representation</text>
<path
       fill="none"
       stroke="#000000"
       stroke-width="1.5"
       stroke-miterlimit="10"
       d="M241.5,156.95c0,5.661-4.589,10.25-10.25,10.25   H93.75c-5.661,0-10.25-4.589-10.25-10.25l0,0c0-5.661,4.589-10.25,10.25-10.25h137.5C236.911,146.7,241.5,151.289,241.5,156.95   L241.5,156.95z"
       id="path8820"
       style="" /></g><g
     id="g8822"
     style=""><text
       transform="matrix(1 0 0 1 120.7121 120.1)"
       font-family="'MyriadPro-Regular'"
       font-size="12"
       id="text8824"
       style="-inkscape-font-specification:'Myriad Pro, Normal';font-family:'Myriad Pro';font-weight:normal;font-style:normal;font-stretch:normal;font-variant:normal;font-size:12.00000048px;text-anchor:start;text-align:start;writing-mode:lr;line-height:125%;"
       sodipodi:linespacing="125%">Syntactic Representation</text>
<path
       fill="none"
       stroke="#000000"
       stroke-width="1.5"
       stroke-miterlimit="10"
       d="M261.5,117.55c0,5.661-4.589,10.25-10.25,10.25   h-137.5c-5.661,0-10.25-4.589-10.25-10.25l0,0c0-5.661,4.589-10.25,10.25-10.25h137.5C256.911,107.3,261.5,111.889,261.5,117.55   L261.5,117.55z"
       id="path8826"
       style="" /></g><g
     id="g8828"
     style=""><text
       transform="matrix(1 0 0 1 100.196 81.8)"
       font-family="'MyriadPro-Regular'"
       font-size="12"
       id="text8830"
       style="-inkscape-font-specification:'Myriad Pro, Normal';font-family:'Myriad Pro';font-weight:normal;font-style:normal;font-stretch:normal;font-variant:normal;font-size:12.00000048px;text-anchor:start;text-align:start;writing-mode:lr;line-height:125%;"
       sodipodi:linespacing="125%">Semantic Representation</text>
<path
       fill="none"
       stroke="#000000"
       stroke-width="1.5"
       stroke-miterlimit="10"
       d="M241.5,78.15c0,5.661-4.589,10.25-10.25,10.25   H93.75c-5.661,0-10.25-4.589-10.25-10.25l0,0c0-5.661,4.589-10.25,10.25-10.25h137.5C236.911,67.9,241.5,72.489,241.5,78.15   L241.5,78.15z"
       id="path8832"
       style="" /></g><g
     opacity="0.4"
     id="g8834"
     style="opacity:1"><text
       transform="matrix(1 0 0 1 143.1159 42.5)"
       font-family="'MyriadPro-Regular'"
       font-size="12"
       id="text8836"
       style="-inkscape-font-specification:'Myriad Pro, Normal';font-family:'Myriad Pro';font-weight:normal;font-style:normal;font-stretch:normal;font-variant:normal;font-size:12.00000048px;text-anchor:start;text-align:start;writing-mode:lr;line-height:125%;"
       sodipodi:linespacing="125%">Situation Model</text>
<path
       fill="none"
       stroke="#000000"
       stroke-width="1.5"
       stroke-miterlimit="10"
       d="M261.5,38.75c0,5.661-4.589,10.25-10.25,10.25   h-137.5c-5.661,0-10.25-4.589-10.25-10.25l0,0c0-5.661,4.589-10.25,10.25-10.25h137.5C256.911,28.5,261.5,33.089,261.5,38.75   L261.5,38.75z"
       id="path8838"
       style="" /></g><g
     opacity="0.4"
     id="g8840"
     style="opacity:1"><text
       transform="matrix(1 0 0 1 121.2758 239)"
       font-family="'MyriadPro-Regular'"
       font-size="12"
       id="text8842"
       style="-inkscape-font-specification:'Myriad Pro, Normal';font-family:'Myriad Pro';font-weight:normal;font-style:normal;font-stretch:normal;font-variant:normal;font-size:12.00000048px;text-anchor:start;text-align:start;writing-mode:lr;line-height:125%;"
       sodipodi:linespacing="125%">Phonetic Representation</text>
<path
       fill="none"
       stroke="#000000"
       stroke-width="1.5"
       stroke-miterlimit="10"
       d="M261.5,235.75c0,5.661-4.589,10.25-10.25,10.25   h-137.5c-5.661,0-10.25-4.589-10.25-10.25l0,0c0-5.661,4.589-10.25,10.25-10.25h137.5C256.911,225.5,261.5,230.089,261.5,235.75   L261.5,235.75z"
       id="path8844"
       style="" /></g><text
     transform="matrix(1 0 0 1 20.5 43.5659)"
     font-family="'MyriadPro-Bold'"
     font-size="18"
     id="text8846"
     style="-inkscape-font-specification:'Myriad Pro, Normal';font-family:'Myriad Pro';font-weight:normal;font-style:normal;font-stretch:normal;font-variant:normal;font-size:13.75px;text-anchor:start;text-align:start;writing-mode:lr;line-height:125%;"
     sodipodi:linespacing="125%">A</text>
<text
     transform="matrix(1 0 0 1 573 43.5659)"
     font-family="'MyriadPro-Bold'"
     font-size="18"
     id="text8848"
     style="-inkscape-font-specification:'Myriad Pro, Normal';font-family:'Myriad Pro';font-weight:normal;font-style:normal;font-stretch:normal;font-variant:normal;font-size:13.75px;text-anchor:start;text-align:start;writing-mode:lr;line-height:125%;"
     sodipodi:linespacing="125%">B</text>
<text
     transform="matrix(1 0 0 1 34.5 57.8)"
     opacity="0.4"
     font-family="'MyriadPro-Bold'"
     font-size="12"
     id="text8850"
     style="opacity:1;-inkscape-font-specification:'Myriad Pro, Normal';font-family:'Myriad Pro';font-weight:normal;font-style:normal;font-stretch:normal;font-variant:normal;font-size:12.5px;text-anchor:start;text-align:start;writing-mode:lr;line-height:125%;"
     sodipodi:linespacing="125%">Message</text>
<text
     transform="matrix(1 0 0 1 526 57.8)"
     opacity="0.4"
     font-family="'MyriadPro-Bold'"
     font-size="12"
     id="text8852"
     style="opacity:1;-inkscape-font-specification:'Myriad Pro, Normal';font-family:'Myriad Pro';font-weight:normal;font-style:normal;font-stretch:normal;font-variant:normal;font-size:12.5px;text-anchor:start;text-align:start;writing-mode:lr;line-height:125%;"
     sodipodi:linespacing="125%">Message</text>
<g
     opacity="0.4"
     id="g8854"
     style="opacity:1"><text
       transform="matrix(1 0 0 1 349.6381 200.7)"
       font-family="'MyriadPro-Regular'"
       font-size="12"
       id="text8856"
       style="-inkscape-font-specification:'Myriad Pro, Normal';font-family:'Myriad Pro';font-weight:normal;font-style:normal;font-stretch:normal;font-variant:normal;font-size:12.00000048px;text-anchor:start;text-align:start;writing-mode:lr;line-height:125%;"
       sodipodi:linespacing="125%">Phonological Representation</text>
<path
       fill="none"
       stroke="#000000"
       stroke-width="1.5"
       stroke-miterlimit="10"
       d="M500.5,196.35c0,5.661-4.589,10.25-10.25,10.25   h-137.5c-5.661,0-10.25-4.589-10.25-10.25l0,0c0-5.661,4.589-10.25,10.25-10.25h137.5C495.911,186.1,500.5,190.689,500.5,196.35   L500.5,196.35z"
       id="path8858"
       style="" /></g><g
     id="g8860"
     style=""><text
       transform="matrix(1 0 0 1 385.562 161.4)"
       font-family="'MyriadPro-Regular'"
       font-size="12"
       id="text8862"
       style="-inkscape-font-specification:'Myriad Pro, Normal';font-family:'Myriad Pro';font-weight:normal;font-style:normal;font-stretch:normal;font-variant:normal;font-size:12.00000048px;text-anchor:start;text-align:start;writing-mode:lr;line-height:125%;"
       sodipodi:linespacing="125%">Lexical Representation</text>
<path
       fill="none"
       stroke="#000000"
       stroke-width="1.5"
       stroke-miterlimit="10"
       d="M520.5,156.95c0,5.661-4.589,10.25-10.25,10.25   h-137.5c-5.661,0-10.25-4.589-10.25-10.25l0,0c0-5.661,4.589-10.25,10.25-10.25h137.5C515.911,146.7,520.5,151.289,520.5,156.95   L520.5,156.95z"
       id="path8864"
       style="" /></g><g
     id="g8866"
     style=""><text
       transform="matrix(1 0 0 1 359.7121 120.1)"
       font-family="'MyriadPro-Regular'"
       font-size="12"
       id="text8868"
       style="-inkscape-font-specification:'Myriad Pro, Normal';font-family:'Myriad Pro';font-weight:normal;font-style:normal;font-stretch:normal;font-variant:normal;font-size:12.00000048px;text-anchor:start;text-align:start;writing-mode:lr;line-height:125%;"
       sodipodi:linespacing="125%">Syntactic Representation</text>
<path
       fill="none"
       stroke="#000000"
       stroke-width="1.5"
       stroke-miterlimit="10"
       d="M500.5,117.55c0,5.661-4.589,10.25-10.25,10.25   h-137.5c-5.661,0-10.25-4.589-10.25-10.25l0,0c0-5.661,4.589-10.25,10.25-10.25h137.5C495.911,107.3,500.5,111.889,500.5,117.55   L500.5,117.55z"
       id="path8870"
       style="" /></g><g
     id="g8872"
     style=""><text
       transform="matrix(1 0 0 1 379.196 81.8)"
       font-family="'MyriadPro-Regular'"
       font-size="12"
       id="text8874"
       style="-inkscape-font-specification:'Myriad Pro, Normal';font-family:'Myriad Pro';font-weight:normal;font-style:normal;font-stretch:normal;font-variant:normal;font-size:12.00000048px;text-anchor:start;text-align:start;writing-mode:lr;line-height:125%;"
       sodipodi:linespacing="125%">Semantic Representation</text>
<path
       fill="none"
       stroke="#000000"
       stroke-width="1.5"
       stroke-miterlimit="10"
       d="M520.5,78.15c0,5.661-4.589,10.25-10.25,10.25   h-137.5c-5.661,0-10.25-4.589-10.25-10.25l0,0c0-5.661,4.589-10.25,10.25-10.25h137.5C515.911,67.9,520.5,72.489,520.5,78.15   L520.5,78.15z"
       id="path8876"
       style="" /></g><g
     opacity="0.4"
     id="g8878"
     style="opacity:1"><text
       transform="matrix(1 0 0 1 382.1159 42.5)"
       font-family="'MyriadPro-Regular'"
       font-size="12"
       id="text8880"
       style="-inkscape-font-specification:'Myriad Pro, Normal';font-family:'Myriad Pro';font-weight:normal;font-style:normal;font-stretch:normal;font-variant:normal;font-size:12.00000048px;text-anchor:start;text-align:start;writing-mode:lr;line-height:125%;"
       sodipodi:linespacing="125%">Situation Model</text>
<path
       fill="none"
       stroke="#000000"
       stroke-width="1.5"
       stroke-miterlimit="10"
       d="M500.5,38.75c0,5.661-4.589,10.25-10.25,10.25   h-137.5c-5.661,0-10.25-4.589-10.25-10.25l0,0c0-5.661,4.589-10.25,10.25-10.25h137.5C495.911,28.5,500.5,33.089,500.5,38.75   L500.5,38.75z"
       id="path8882"
       style="" /></g><g
     opacity="0.4"
     id="g8884"
     style="opacity:1"><text
       transform="matrix(1 0 0 1 360.2758 239)"
       font-family="'MyriadPro-Regular'"
       font-size="12"
       id="text8886"
       style="-inkscape-font-specification:'Myriad Pro, Normal';font-family:'Myriad Pro';font-weight:normal;font-style:normal;font-stretch:normal;font-variant:normal;font-size:12.00000048px;text-anchor:start;text-align:start;writing-mode:lr;line-height:125%;"
       sodipodi:linespacing="125%">Phonetic Representation</text>
<path
       fill="none"
       stroke="#000000"
       stroke-width="1.5"
       stroke-miterlimit="10"
       d="M500.5,235.75c0,5.661-4.589,10.25-10.25,10.25   h-137.5c-5.661,0-10.25-4.589-10.25-10.25l0,0c0-5.661,4.589-10.25,10.25-10.25h137.5C495.911,225.5,500.5,230.089,500.5,235.75   L500.5,235.75z"
       id="path8888"
       style="" /></g><g
     opacity="0.4"
     id="g8890"
     style="opacity:1"><g
       id="g8892"
       style=""><g
         id="g8894"
         style=""><line
           fill="none"
           stroke="#000000"
           stroke-miterlimit="10"
           x1="83.5"
           y1="52.5"
           x2="94.381"
           y2="48.458"
           id="line8896"
           style="" /><g
           id="g8898"
           style=""><polygon
             points="101,46 93.089,53.275 93.886,48.642 90.258,45.654     "
             id="polygon8900"
             style="" /></g></g></g><g
       id="g8902"
       style=""><g
         id="g8904"
         style=""><line
           fill="none"
           stroke="#000000"
           stroke-miterlimit="10"
           x1="83.5"
           y1="57.8"
           x2="94.457"
           y2="62.246"
           id="line8906"
           style="" /><g
           id="g8908"
           style=""><polygon
             points="101,64.9 90.252,64.927 93.968,62.047 93.309,57.393     "
             id="polygon8910"
             style="" /></g></g></g></g><g
     opacity="0.4"
     id="g8912"
     style="opacity:1"><g
       id="g8914"
       style=""><g
         id="g8916"
         style=""><line
           fill="none"
           stroke="#000000"
           stroke-miterlimit="10"
           x1="521"
           y1="58.4"
           x2="510.119"
           y2="62.442"
           id="line8918"
           style="" /><g
           id="g8920"
           style=""><polygon
             points="503.5,64.9 511.411,57.625 510.614,62.258 514.242,65.246     "
             id="polygon8922"
             style="" /></g></g></g><g
       id="g8924"
       style=""><g
         id="g8926"
         style=""><line
           fill="none"
           stroke="#000000"
           stroke-miterlimit="10"
           x1="521"
           y1="53.1"
           x2="510.043"
           y2="48.654"
           id="line8928"
           style="" /><g
           id="g8930"
           style="fill:#000000;opacity:1"><polygon
             points="503.5,46 514.248,45.973 510.532,48.853 511.191,53.507     "
             id="polygon8932"
             style="fill:#000000" /></g></g></g></g><g
     opacity="0.4"
     id="g8934"
     style="opacity:1"><g
       id="g8936"
       style=""><g
         id="g8938"
         style=""><line
           fill="none"
           stroke="#000000"
           stroke-miterlimit="10"
           x1="269"
           y1="43.5"
           x2="331.439"
           y2="43.5"
           id="line8940"
           style="" /><g
           id="g8942"
           style=""><polygon
             points="338.5,43.5 328.551,47.565 330.912,43.5 328.551,39.436     "
             id="polygon8944"
             style="" /></g></g></g><g
       id="g8946"
       style=""><g
         id="g8948"
         style=""><line
           fill="none"
           stroke="#000000"
           stroke-miterlimit="10"
           x1="336.5"
           y1="33.5"
           x2="274.061"
           y2="33.5"
           id="line8950"
           style="" /><g
           id="g8952"
           style=""><polygon
             points="267,33.5 276.949,29.435 274.588,33.5 276.949,37.564     "
             id="polygon8954"
             style="" /></g></g></g></g><g
     id="g8956"
     style=""><g
       id="g8958"
       style=""><g
         id="g8960"
         style=""><line
           fill="none"
           stroke="#000000"
           stroke-miterlimit="10"
           x1="251.021"
           y1="83.5"
           x2="348.939"
           y2="83.5"
           id="line8962"
           style="" /><g
           id="g8964"
           style=""><polygon
             points="356,83.5 346.051,87.565 348.412,83.5 346.051,79.436     "
             id="polygon8966"
             style="" /></g></g></g><g
       id="g8968"
       style=""><g
         id="g8970"
         style=""><line
           fill="none"
           stroke="#000000"
           stroke-miterlimit="10"
           x1="352.979"
           y1="73.5"
           x2="255.061"
           y2="73.5"
           id="line8972"
           style="" /><g
           id="g8974"
           style=""><polygon
             points="248,73.5 257.949,69.435 255.588,73.5 257.949,77.564     "
             id="polygon8976"
             style="" /></g></g></g></g><g
     id="g8978"
     style=""><g
       id="g8980"
       style=""><g
         id="g8982"
         style=""><line
           fill="none"
           stroke="#000000"
           stroke-miterlimit="10"
           x1="269"
           y1="123.5"
           x2="331.439"
           y2="123.5"
           id="line8984"
           style="" /><g
           id="g8986"
           style=""><polygon
             points="338.5,123.5 328.551,127.565 330.912,123.5 328.551,119.436     "
             id="polygon8988"
             style="" /></g></g></g><g
       id="g8990"
       style=""><g
         id="g8992"
         style=""><line
           fill="none"
           stroke="#000000"
           stroke-miterlimit="10"
           x1="336.5"
           y1="113.5"
           x2="274.061"
           y2="113.5"
           id="line8994"
           style="" /><g
           id="g8996"
           style=""><polygon
             points="267,113.5 276.949,109.435 274.588,113.5 276.949,117.564     "
             id="polygon8998"
             style="" /></g></g></g></g><g
     id="g9000"
     style=""><g
       id="g9002"
       style=""><g
         id="g9004"
         style=""><line
           fill="none"
           stroke="#000000"
           stroke-miterlimit="10"
           x1="254.373"
           y1="162.5"
           x2="346.418"
           y2="162.5"
           id="line9006"
           style="" /><g
           id="g9008"
           style=""><polygon
             points="353.479,162.5 343.53,166.565 345.891,162.5 343.53,158.436     "
             id="polygon9010"
             style="" /></g></g></g><g
       id="g9012"
       style=""><g
         id="g9014"
         style=""><line
           fill="none"
           stroke="#000000"
           stroke-miterlimit="10"
           x1="350.627"
           y1="152.5"
           x2="258.582"
           y2="152.5"
           id="line9016"
           style="" /><g
           id="g9018"
           style=""><polygon
             points="251.521,152.5 261.47,148.435 259.109,152.5 261.47,156.564     "
             id="polygon9020"
             style="" /></g></g></g></g><g
     opacity="0.4"
     id="g9022"
     style="opacity:1"><g
       id="g9024"
       style=""><g
         id="g9026"
         style=""><line
           fill="none"
           stroke="#000000"
           stroke-miterlimit="10"
           x1="269"
           y1="201.5"
           x2="331.439"
           y2="201.5"
           id="line9028"
           style="" /><g
           id="g9030"
           style=""><polygon
             points="338.5,201.5 328.551,205.565 330.912,201.5 328.551,197.436     "
             id="polygon9032"
             style="" /></g></g></g><g
       id="g9034"
       style=""><g
         id="g9036"
         style=""><line
           fill="none"
           stroke="#000000"
           stroke-miterlimit="10"
           x1="336.5"
           y1="191.5"
           x2="274.061"
           y2="191.5"
           id="line9038"
           style="" /><g
           id="g9040"
           style=""><polygon
             points="267,191.5 276.949,187.435 274.588,191.5 276.949,195.564     "
             id="polygon9042"
             style="" /></g></g></g></g><g
     opacity="0.4"
     id="g9044"
     style="opacity:1"><g
       id="g9046"
       style=""><g
         id="g9048"
         style=""><line
           fill="none"
           stroke="#000000"
           stroke-miterlimit="10"
           x1="269"
           y1="241.5"
           x2="331.439"
           y2="241.5"
           id="line9050"
           style="" /><g
           id="g9052"
           style=""><polygon
             points="338.5,241.5 328.551,245.565 330.912,241.5 328.551,237.436     "
             id="polygon9054"
             style="" /></g></g></g><g
       id="g9056"
       style=""><g
         id="g9058"
         style=""><line
           fill="none"
           stroke="#000000"
           stroke-miterlimit="10"
           x1="336.5"
           y1="231.5"
           x2="274.061"
           y2="231.5"
           id="line9060"
           style="" /><g
           id="g9062"
           style=""><polygon
             points="267,231.5 276.949,227.435 274.588,231.5 276.949,235.564     "
             id="polygon9064"
             style="" /></g></g></g></g><g
     opacity="0.4"
     id="g9066"
     style="opacity:1"><g
       id="g9068"
       style=""><g
         id="g9070"
         style=""><line
           fill="none"
           stroke="#000000"
           stroke-miterlimit="10"
           x1="184"
           y1="66.094"
           x2="184"
           y2="56.911"
           id="line9072"
           style="" /><g
           id="g9074"
           style=""><polygon
             points="184,49.85 188.065,59.799 184,57.438 179.936,59.799     "
             id="polygon9076"
             style="" /></g></g></g><g
       id="g9078"
       style=""><g
         id="g9080"
         style=""><line
           fill="none"
           stroke="#000000"
           stroke-miterlimit="10"
           x1="172.75"
           y1="50.317"
           x2="172.75"
           y2="59.501"
           id="line9082"
           style="" /><g
           id="g9084"
           style=""><polygon
             points="172.75,66.561 168.685,56.612 172.75,58.973 176.814,56.612     "
             id="polygon9086"
             style="" /></g></g></g></g><g
     id="g9088"
     style=""><g
       id="g9090"
       style=""><g
         id="g9092"
         style=""><line
           fill="none"
           stroke="#000000"
           stroke-miterlimit="10"
           x1="184"
           y1="106.094"
           x2="184"
           y2="96.911"
           id="line9094"
           style="" /><g
           id="g9096"
           style=""><polygon
             points="184,89.85 188.065,99.799 184,97.438 179.936,99.799     "
             id="polygon9098"
             style="" /></g></g></g><g
       id="g9100"
       style=""><g
         id="g9102"
         style=""><line
           fill="none"
           stroke="#000000"
           stroke-miterlimit="10"
           x1="172.75"
           y1="90.317"
           x2="172.75"
           y2="99.501"
           id="line9104"
           style="" /><g
           id="g9106"
           style=""><polygon
             points="172.75,106.561 168.685,96.612 172.75,98.973 176.814,96.612     "
             id="polygon9108"
             style="" /></g></g></g></g><g
     id="g9110"
     style=""><g
       id="g9112"
       style=""><g
         id="g9114"
         style=""><line
           fill="none"
           stroke="#000000"
           stroke-miterlimit="10"
           x1="184"
           y1="145.094"
           x2="184"
           y2="135.911"
           id="line9116"
           style="" /><g
           id="g9118"
           style=""><polygon
             points="184,128.85 188.065,138.799 184,136.438 179.936,138.799     "
             id="polygon9120"
             style="" /></g></g></g><g
       id="g9122"
       style=""><g
         id="g9124"
         style=""><line
           fill="none"
           stroke="#000000"
           stroke-miterlimit="10"
           x1="172.75"
           y1="129.317"
           x2="172.75"
           y2="138.501"
           id="line9126"
           style="" /><g
           id="g9128"
           style=""><polygon
             points="172.75,145.561 168.685,135.612 172.75,137.973 176.814,135.612     "
             id="polygon9130"
             style="" /></g></g></g></g><g
     opacity="0.4"
     id="g9132"
     style="opacity:1"><g
       id="g9134"
       style=""><g
         id="g9136"
         style=""><line
           fill="none"
           stroke="#000000"
           stroke-miterlimit="10"
           x1="184"
           y1="184.094"
           x2="184"
           y2="174.911"
           id="line9138"
           style="" /><g
           id="g9140"
           style=""><polygon
             points="184,167.85 188.065,177.799 184,175.438 179.936,177.799     "
             id="polygon9142"
             style="" /></g></g></g><g
       id="g9144"
       style=""><g
         id="g9146"
         style=""><line
           fill="none"
           stroke="#000000"
           stroke-miterlimit="10"
           x1="172.75"
           y1="168.317"
           x2="172.75"
           y2="177.501"
           id="line9148"
           style="" /><g
           id="g9150"
           style=""><polygon
             points="172.75,184.561 168.685,174.612 172.75,176.973 176.814,174.612     "
             id="polygon9152"
             style="" /></g></g></g></g><g
     opacity="0.4"
     id="g9154"
     style="opacity:1"><g
       id="g9156"
       style=""><g
         id="g9158"
         style=""><line
           fill="none"
           stroke="#000000"
           stroke-miterlimit="10"
           x1="184"
           y1="224.094"
           x2="184"
           y2="214.911"
           id="line9160"
           style="" /><g
           id="g9162"
           style=""><polygon
             points="184,207.85 188.065,217.799 184,215.438 179.936,217.799     "
             id="polygon9164"
             style="" /></g></g></g><g
       id="g9166"
       style=""><g
         id="g9168"
         style=""><line
           fill="none"
           stroke="#000000"
           stroke-miterlimit="10"
           x1="172.75"
           y1="208.317"
           x2="172.75"
           y2="217.501"
           id="line9170"
           style="" /><g
           id="g9172"
           style=""><polygon
             points="172.75,224.561 168.685,214.612 172.75,216.973 176.814,214.612     "
             id="polygon9174"
             style="" /></g></g></g></g><g
     opacity="0.4"
     id="g9176"
     style="opacity:1"><g
       id="g9178"
       style=""><g
         id="g9180"
         style=""><line
           fill="none"
           stroke="#000000"
           stroke-miterlimit="10"
           x1="429"
           y1="66.094"
           x2="429"
           y2="56.911"
           id="line9182"
           style="" /><g
           id="g9184"
           style=""><polygon
             points="429,49.85 433.065,59.799 429,57.438 424.936,59.799     "
             id="polygon9186"
             style="" /></g></g></g><g
       id="g9188"
       style=""><g
         id="g9190"
         style=""><line
           fill="none"
           stroke="#000000"
           stroke-miterlimit="10"
           x1="417.75"
           y1="50.317"
           x2="417.75"
           y2="59.501"
           id="line9192"
           style="" /><g
           id="g9194"
           style=""><polygon
             points="417.75,66.561 413.685,56.612 417.75,58.973 421.814,56.612     "
             id="polygon9196"
             style="" /></g></g></g></g><g
     id="g9198"
     style=""><g
       id="g9200"
       style=""><g
         id="g9202"
         style=""><line
           fill="none"
           stroke="#000000"
           stroke-miterlimit="10"
           x1="429"
           y1="106.094"
           x2="429"
           y2="96.911"
           id="line9204"
           style="" /><g
           id="g9206"
           style=""><polygon
             points="429,89.85 433.065,99.799 429,97.438 424.936,99.799     "
             id="polygon9208"
             style="" /></g></g></g><g
       id="g9210"
       style=""><g
         id="g9212"
         style=""><line
           fill="none"
           stroke="#000000"
           stroke-miterlimit="10"
           x1="417.75"
           y1="90.317"
           x2="417.75"
           y2="99.501"
           id="line9214"
           style="" /><g
           id="g9216"
           style=""><polygon
             points="417.75,106.561 413.685,96.612 417.75,98.973 421.814,96.612     "
             id="polygon9218"
             style="" /></g></g></g></g><g
     id="g9220"
     style=""><g
       id="g9222"
       style=""><g
         id="g9224"
         style=""><line
           fill="none"
           stroke="#000000"
           stroke-miterlimit="10"
           x1="429"
           y1="145.094"
           x2="429"
           y2="135.911"
           id="line9226"
           style="" /><g
           id="g9228"
           style=""><polygon
             points="429,128.85 433.065,138.799 429,136.438 424.936,138.799     "
             id="polygon9230"
             style="" /></g></g></g><g
       id="g9232"
       style=""><g
         id="g9234"
         style=""><line
           fill="none"
           stroke="#000000"
           stroke-miterlimit="10"
           x1="417.75"
           y1="129.317"
           x2="417.75"
           y2="138.501"
           id="line9236"
           style="" /><g
           id="g9238"
           style=""><polygon
             points="417.75,145.561 413.685,135.612 417.75,137.973 421.814,135.612     "
             id="polygon9240"
             style="" /></g></g></g></g><g
     opacity="0.4"
     id="g9242"
     style="opacity:1"><g
       id="g9244"
       style=""><g
         id="g9246"
         style=""><line
           fill="none"
           stroke="#000000"
           stroke-miterlimit="10"
           x1="429"
           y1="184.094"
           x2="429"
           y2="174.911"
           id="line9248"
           style="" /><g
           id="g9250"
           style=""><polygon
             points="429,167.85 433.065,177.799 429,175.438 424.936,177.799     "
             id="polygon9252"
             style="" /></g></g></g><g
       id="g9254"
       style=""><g
         id="g9256"
         style=""><line
           fill="none"
           stroke="#000000"
           stroke-miterlimit="10"
           x1="417.75"
           y1="168.317"
           x2="417.75"
           y2="177.501"
           id="line9258"
           style="" /><g
           id="g9260"
           style=""><polygon
             points="417.75,184.561 413.685,174.612 417.75,176.973 421.814,174.612     "
             id="polygon9262"
             style="" /></g></g></g></g><g
     opacity="0.4"
     id="g9264"
     style="opacity:1"><g
       id="g9266"
       style=""><g
         id="g9268"
         style=""><line
           fill="none"
           stroke="#000000"
           stroke-miterlimit="10"
           x1="429"
           y1="224.094"
           x2="429"
           y2="214.911"
           id="line9270"
           style="" /><g
           id="g9272"
           style=""><polygon
             points="429,207.85 433.065,217.799 429,215.438 424.936,217.799     "
             id="polygon9274"
             style="" /></g></g></g><g
       id="g9276"
       style=""><g
         id="g9278"
         style=""><line
           fill="none"
           stroke="#000000"
           stroke-miterlimit="10"
           x1="417.75"
           y1="208.317"
           x2="417.75"
           y2="217.501"
           id="line9280"
           style="" /><g
           id="g9282"
           style=""><polygon
             points="417.75,224.561 413.685,214.612 417.75,216.973 421.814,214.612     "
             id="polygon9284"
             style="" /></g></g></g></g><g
     opacity="0.4"
     id="g9286"
     style="opacity:1"><g
       id="g9288"
       style=""><g
         id="g9290"
         style=""><line
           fill="none"
           stroke="#000000"
           stroke-miterlimit="10"
           x1="308.926"
           y1="70.497"
           x2="308.926"
           y2="52.143"
           id="line9292"
           style="" /><g
           id="g9294"
           style=""><polygon
             points="308.926,45.083 312.991,55.032 308.926,52.671 304.862,55.032     "
             id="polygon9296"
             style="" /></g></g></g><g
       id="g9298"
       style=""><g
         id="g9300"
         style=""><line
           fill="none"
           stroke="#000000"
           stroke-miterlimit="10"
           x1="300.75"
           y1="45.814"
           x2="300.75"
           y2="64.167"
           id="line9302"
           style="" /><g
           id="g9304"
           style=""><polygon
             points="300.75,71.228 296.685,61.279 300.75,63.64 304.814,61.279     "
             id="polygon9306"
             style="" /></g></g></g></g><g
     id="g9308"
     style=""><g
       id="g9310"
       style=""><g
         id="g9312"
         style=""><line
           fill="none"
           stroke="#000000"
           stroke-miterlimit="10"
           x1="308.926"
           y1="110.497"
           x2="308.926"
           y2="92.143"
           id="line9314"
           style="" /><g
           id="g9316"
           style=""><polygon
             points="308.926,85.083 312.991,95.032 308.926,92.671 304.862,95.032     "
             id="polygon9318"
             style="" /></g></g></g><g
       id="g9320"
       style=""><g
         id="g9322"
         style=""><line
           fill="none"
           stroke="#000000"
           stroke-miterlimit="10"
           x1="300.75"
           y1="85.814"
           x2="300.75"
           y2="104.167"
           id="line9324"
           style="" /><g
           id="g9326"
           style=""><polygon
             points="300.75,111.228 296.685,101.279 300.75,103.64 304.814,101.279     "
             id="polygon9328"
             style="" /></g></g></g></g><g
     id="g9330"
     style=""><g
       id="g9332"
       style=""><g
         id="g9334"
         style=""><line
           fill="none"
           stroke="#000000"
           stroke-miterlimit="10"
           x1="308.926"
           y1="150.497"
           x2="308.926"
           y2="132.143"
           id="line9336"
           style="" /><g
           id="g9338"
           style=""><polygon
             points="308.926,125.083 312.991,135.032 308.926,132.671 304.862,135.032     "
             id="polygon9340"
             style="" /></g></g></g><g
       id="g9342"
       style=""><g
         id="g9344"
         style=""><line
           fill="none"
           stroke="#000000"
           stroke-miterlimit="10"
           x1="300.75"
           y1="125.814"
           x2="300.75"
           y2="144.167"
           id="line9346"
           style="" /><g
           id="g9348"
           style=""><polygon
             points="300.75,151.228 296.685,141.279 300.75,143.64 304.814,141.279     "
             id="polygon9350"
             style="" /></g></g></g></g><g
     opacity="0.4"
     id="g9352"
     style="opacity:1"><g
       id="g9354"
       style=""><g
         id="g9356"
         style=""><line
           fill="none"
           stroke="#000000"
           stroke-miterlimit="10"
           x1="308.926"
           y1="189.497"
           x2="308.926"
           y2="171.143"
           id="line9358"
           style="" /><g
           id="g9360"
           style=""><polygon
             points="308.926,164.083 312.991,174.032 308.926,171.671 304.862,174.032     "
             id="polygon9362"
             style="" /></g></g></g><g
       id="g9364"
       style=""><g
         id="g9366"
         style=""><line
           fill="none"
           stroke="#000000"
           stroke-miterlimit="10"
           x1="300.75"
           y1="164.814"
           x2="300.75"
           y2="183.167"
           id="line9368"
           style="" /><g
           id="g9370"
           style=""><polygon
             points="300.75,190.228 296.685,180.279 300.75,182.64 304.814,180.279     "
             id="polygon9372"
             style="" /></g></g></g></g><g
     opacity="0.4"
     id="g9374"
     style="opacity:1"><g
       id="g9376"
       style=""><g
         id="g9378"
         style=""><line
           fill="none"
           stroke="#000000"
           stroke-miterlimit="10"
           x1="308.926"
           y1="228.497"
           x2="308.926"
           y2="210.143"
           id="line9380"
           style="" /><g
           id="g9382"
           style=""><polygon
             points="308.926,203.083 312.991,213.032 308.926,210.671 304.862,213.032     "
             id="polygon9384"
             style="" /></g></g></g><g
       id="g9386"
       style=""><g
         id="g9388"
         style=""><line
           fill="none"
           stroke="#000000"
           stroke-miterlimit="10"
           x1="300.75"
           y1="203.814"
           x2="300.75"
           y2="222.167"
           id="line9390"
           style="" /><g
           id="g9392"
           style=""><polygon
             points="300.75,229.228 296.685,219.279 300.75,221.64 304.814,219.279     "
             id="polygon9394"
             style="" /></g></g></g></g><g
     id="g9396"
     style=""><g
       id="g9398"
       style=""><path
         fill="none"
         stroke="#000000"
         stroke-miterlimit="10"
         d="M97.984,97.498c-7.926,9.293-9.465,27.688-2.171,39.171"
         id="path9400"
         style="" /><g
         id="g9402"
         style=""><polygon
           points="103.528,93.123 93.275,96.347 97.688,97.968 98.466,102.604    "
           id="polygon9404"
           style="" /></g><g
         id="g9406"
         style=""><polygon
           points="100.466,141.977 90.949,136.983 95.58,136.171 97.169,131.748    "
           id="polygon9408"
           style="" /></g></g></g><g
     id="g9410"
     style=""><g
       id="g9412"
       style=""><path
         fill="none"
         stroke="#000000"
         stroke-miterlimit="10"
         d="M505.651,137.602c7.926-9.293,9.465-27.688,2.171-39.171"
         id="path9414"
         style="" /><g
         id="g9416"
         style=""><polygon
           points="500.107,141.977 510.36,138.753 505.947,137.132 505.169,132.496    "
           id="polygon9418"
           style="" /></g><g
         id="g9420"
         style=""><polygon
           points="503.169,93.123 512.686,98.117 508.056,98.929 506.466,103.352    "
           id="polygon9422"
           style="" /></g></g></g></svg>