<?xml version="1.0" encoding="UTF-8" standalone="no"?>
<!-- Generator: Adobe Illustrator 17.0.0, SVG Export Plug-In . SVG Version: 6.00 Build 0)  -->

<svg
   xmlns:dc="http://purl.org/dc/elements/1.1/"
   xmlns:cc="http://creativecommons.org/ns#"
   xmlns:rdf="http://www.w3.org/1999/02/22-rdf-syntax-ns#"
   xmlns:svg="http://www.w3.org/2000/svg"
   xmlns="http://www.w3.org/2000/svg"
   xmlns:sodipodi="http://sodipodi.sourceforge.net/DTD/sodipodi-0.dtd"
   xmlns:inkscape="http://www.inkscape.org/namespaces/inkscape"
   version="1.1"
   id="Layer_1"
   x="0px"
   y="0px"
   width="535.91858"
   height="140.2"
   viewBox="0 0 535.91858 140.2"
   enable-background="new 0 0 612 792"
   xml:space="preserve"
   inkscape:version="0.91 r13725"
   sodipodi:docname="iam-4.svg"><metadata
     id="metadata9428"><rdf:RDF><cc:Work
         rdf:about=""><dc:format>image/svg+xml</dc:format><dc:type
           rdf:resource="http://purl.org/dc/dcmitype/StillImage" /><dc:title></dc:title></cc:Work></rdf:RDF></metadata><defs
     id="defs9426" /><sodipodi:namedview
     pagecolor="#ffffff"
     bordercolor="#666666"
     borderopacity="1"
     objecttolerance="10"
     gridtolerance="10"
     guidetolerance="10"
     inkscape:pageopacity="0"
     inkscape:pageshadow="2"
     inkscape:window-width="1920"
     inkscape:window-height="1061"
     id="namedview9424"
     showgrid="false"
     inkscape:zoom="2.3838384"
     inkscape:cx="245.35449"
     inkscape:cy="27.778932"
     inkscape:window-x="0"
     inkscape:window-y="0"
     inkscape:window-maximized="0"
     inkscape:current-layer="Layer_1"
     fit-margin-top="0"
     fit-margin-left="0"
     fit-margin-right="0"
     fit-margin-bottom="0" /><g
     id="g8816"
     transform="translate(-35.224989,-27.75)"><text
       transform="translate(106.562,161.4)"
       font-size="12"
       id="text8818"
       style="font-style:normal;font-variant:normal;font-weight:normal;font-stretch:normal;font-size:12.00000095px;line-height:125%;font-family:'Myriad Pro';-inkscape-font-specification:'Myriad Pro, Normal';text-align:start;writing-mode:lr-tb;text-anchor:start"
       sodipodi:linespacing="125%">Lexical Representation</text>
<path
       stroke-miterlimit="10"
       d="m 241.5,156.95 c 0,5.661 -4.589,10.25 -10.25,10.25 l -137.5,0 c -5.661,0 -10.25,-4.589 -10.25,-10.25 l 0,0 c 0,-5.661 4.589,-10.25 10.25,-10.25 l 137.5,0 c 5.661,0 10.25,4.589 10.25,10.25 l 0,0 z"
       id="path8820"
       style="fill:none;stroke:#000000;stroke-width:1.5;stroke-miterlimit:10"
       inkscape:connector-curvature="0" /></g><g
     id="g8822"
     transform="translate(-35.224989,-27.75)"><text
       transform="translate(120.7121,120.1)"
       font-size="12"
       id="text8824"
       style="font-style:normal;font-variant:normal;font-weight:normal;font-stretch:normal;font-size:12.00000095px;line-height:125%;font-family:'Myriad Pro';-inkscape-font-specification:'Myriad Pro, Normal';text-align:start;writing-mode:lr-tb;text-anchor:start"
       sodipodi:linespacing="125%">Syntactic Representation</text>
<path
       stroke-miterlimit="10"
       d="m 261.5,117.55 c 0,5.661 -4.589,10.25 -10.25,10.25 l -137.5,0 c -5.661,0 -10.25,-4.589 -10.25,-10.25 l 0,0 c 0,-5.661 4.589,-10.25 10.25,-10.25 l 137.5,0 c 5.661,0 10.25,4.589 10.25,10.25 l 0,0 z"
       id="path8826"
       style="fill:none;stroke:#000000;stroke-width:1.5;stroke-miterlimit:10"
       inkscape:connector-curvature="0" /></g><g
     id="g8828"
     transform="translate(-35.224989,-27.75)"><text
       transform="translate(100.196,81.8)"
       font-size="12"
       id="text8830"
       style="font-style:normal;font-variant:normal;font-weight:normal;font-stretch:normal;font-size:12.00000095px;line-height:125%;font-family:'Myriad Pro';-inkscape-font-specification:'Myriad Pro, Normal';text-align:start;writing-mode:lr-tb;text-anchor:start"
       sodipodi:linespacing="125%">Semantic Representation</text>
<path
       stroke-miterlimit="10"
       d="m 241.5,78.15 c 0,5.661 -4.589,10.25 -10.25,10.25 l -137.5,0 C 88.089,88.4 83.5,83.811 83.5,78.15 l 0,0 c 0,-5.661 4.589,-10.25 10.25,-10.25 l 137.5,0 c 5.661,0 10.25,4.589 10.25,10.25 l 0,0 z"
       id="path8832"
       style="fill:none;stroke:#000000;stroke-width:1.5;stroke-miterlimit:10"
       inkscape:connector-curvature="0" /></g><g
     id="g8834"
     style="opacity:1"
     transform="translate(-35.224989,-27.75)"><text
       transform="translate(143.1159,42.5)"
       font-size="12"
       id="text8836"
       style="font-style:normal;font-variant:normal;font-weight:normal;font-stretch:normal;font-size:12.00000095px;line-height:125%;font-family:'Myriad Pro';-inkscape-font-specification:'Myriad Pro, Normal';text-align:start;writing-mode:lr-tb;text-anchor:start"
       sodipodi:linespacing="125%">Situation Model</text>
<path
       stroke-miterlimit="10"
       d="m 261.5,38.75 c 0,5.661 -4.589,10.25 -10.25,10.25 l -137.5,0 C 108.089,49 103.5,44.411 103.5,38.75 l 0,0 c 0,-5.661 4.589,-10.25 10.25,-10.25 l 137.5,0 c 5.661,0 10.25,4.589 10.25,10.25 l 0,0 z"
       id="path8838"
       style="fill:none;stroke:#000000;stroke-width:1.5;stroke-miterlimit:10"
       inkscape:connector-curvature="0" /></g><text
     font-size="18"
     id="text8846"
     style="font-style:normal;font-variant:normal;font-weight:normal;font-stretch:normal;font-size:13.75px;line-height:125%;font-family:'Myriad Pro';-inkscape-font-specification:'Myriad Pro, Normal';text-align:start;writing-mode:lr-tb;text-anchor:start"
     sodipodi:linespacing="125%"
     x="17.156378"
     y="15.8159">A</text>
<text
     font-size="18"
     id="text8848"
     style="font-style:normal;font-variant:normal;font-weight:normal;font-stretch:normal;font-size:13.75px;line-height:125%;font-family:'Myriad Pro';-inkscape-font-specification:'Myriad Pro, Normal';text-align:start;writing-mode:lr-tb;text-anchor:start"
     sodipodi:linespacing="125%"
     x="510.08856"
     y="16.654882">B</text>
<text
     font-size="12"
     id="text8850"
     style="font-style:normal;font-variant:normal;font-weight:normal;font-stretch:normal;font-size:12.5px;line-height:125%;font-family:'Myriad Pro';-inkscape-font-specification:'Myriad Pro, Normal';text-align:start;writing-mode:lr-tb;text-anchor:start;opacity:1"
     sodipodi:linespacing="125%"
     x="-0.72500002"
     y="30.049999">Message</text>
<text
     font-size="12"
     id="text8852"
     style="font-style:normal;font-variant:normal;font-weight:normal;font-stretch:normal;font-size:12.5px;line-height:125%;font-family:'Myriad Pro';-inkscape-font-specification:'Myriad Pro, Normal';text-align:start;writing-mode:lr-tb;text-anchor:start;opacity:1"
     sodipodi:linespacing="125%"
     x="490.77502"
     y="30.049999">Message</text>
<g
     id="g8860"
     transform="translate(-35.224989,-27.75)"><text
       transform="translate(385.562,161.4)"
       font-size="12"
       id="text8862"
       style="font-style:normal;font-variant:normal;font-weight:normal;font-stretch:normal;font-size:12.00000095px;line-height:125%;font-family:'Myriad Pro';-inkscape-font-specification:'Myriad Pro, Normal';text-align:start;writing-mode:lr-tb;text-anchor:start"
       sodipodi:linespacing="125%">Lexical Representation</text>
<path
       stroke-miterlimit="10"
       d="m 520.5,156.95 c 0,5.661 -4.589,10.25 -10.25,10.25 l -137.5,0 c -5.661,0 -10.25,-4.589 -10.25,-10.25 l 0,0 c 0,-5.661 4.589,-10.25 10.25,-10.25 l 137.5,0 c 5.661,0 10.25,4.589 10.25,10.25 l 0,0 z"
       id="path8864"
       style="fill:none;stroke:#000000;stroke-width:1.5;stroke-miterlimit:10"
       inkscape:connector-curvature="0" /></g><g
     id="g8866"
     transform="translate(-35.224989,-27.75)"><text
       transform="translate(359.7121,120.1)"
       font-size="12"
       id="text8868"
       style="font-style:normal;font-variant:normal;font-weight:normal;font-stretch:normal;font-size:12.00000095px;line-height:125%;font-family:'Myriad Pro';-inkscape-font-specification:'Myriad Pro, Normal';text-align:start;writing-mode:lr-tb;text-anchor:start"
       sodipodi:linespacing="125%">Syntactic Representation</text>
<path
       stroke-miterlimit="10"
       d="m 500.5,117.55 c 0,5.661 -4.589,10.25 -10.25,10.25 l -137.5,0 c -5.661,0 -10.25,-4.589 -10.25,-10.25 l 0,0 c 0,-5.661 4.589,-10.25 10.25,-10.25 l 137.5,0 c 5.661,0 10.25,4.589 10.25,10.25 l 0,0 z"
       id="path8870"
       style="fill:none;stroke:#000000;stroke-width:1.5;stroke-miterlimit:10"
       inkscape:connector-curvature="0" /></g><g
     id="g8872"
     transform="translate(-35.224989,-27.75)"><text
       transform="translate(379.196,81.8)"
       font-size="12"
       id="text8874"
       style="font-style:normal;font-variant:normal;font-weight:normal;font-stretch:normal;font-size:12.00000095px;line-height:125%;font-family:'Myriad Pro';-inkscape-font-specification:'Myriad Pro, Normal';text-align:start;writing-mode:lr-tb;text-anchor:start"
       sodipodi:linespacing="125%">Semantic Representation</text>
<path
       stroke-miterlimit="10"
       d="m 520.5,78.15 c 0,5.661 -4.589,10.25 -10.25,10.25 l -137.5,0 c -5.661,0 -10.25,-4.589 -10.25,-10.25 l 0,0 c 0,-5.661 4.589,-10.25 10.25,-10.25 l 137.5,0 c 5.661,0 10.25,4.589 10.25,10.25 l 0,0 z"
       id="path8876"
       style="fill:none;stroke:#000000;stroke-width:1.5;stroke-miterlimit:10"
       inkscape:connector-curvature="0" /></g><g
     id="g8878"
     style="opacity:1"
     transform="translate(-35.224989,-27.75)"><text
       transform="translate(382.1159,42.5)"
       font-size="12"
       id="text8880"
       style="font-style:normal;font-variant:normal;font-weight:normal;font-stretch:normal;font-size:12.00000095px;line-height:125%;font-family:'Myriad Pro';-inkscape-font-specification:'Myriad Pro, Normal';text-align:start;writing-mode:lr-tb;text-anchor:start"
       sodipodi:linespacing="125%">Situation Model</text>
<path
       stroke-miterlimit="10"
       d="m 500.5,38.75 c 0,5.661 -4.589,10.25 -10.25,10.25 l -137.5,0 C 347.089,49 342.5,44.411 342.5,38.75 l 0,0 c 0,-5.661 4.589,-10.25 10.25,-10.25 l 137.5,0 c 5.661,0 10.25,4.589 10.25,10.25 l 0,0 z"
       id="path8882"
       style="fill:none;stroke:#000000;stroke-width:1.5;stroke-miterlimit:10"
       inkscape:connector-curvature="0" /></g><g
     id="g8890"
     style="opacity:1"
     transform="translate(-35.224989,-27.75)"><g
       id="g8892"><g
         id="g8894"><line
           stroke-miterlimit="10"
           x1="83.5"
           y1="52.5"
           x2="94.380997"
           y2="48.458"
           id="line8896"
           style="fill:none;stroke:#000000;stroke-miterlimit:10" /><g
           id="g8898"><polygon
             points="101,46 93.089,53.275 93.886,48.642 90.258,45.654 "
             id="polygon8900" /></g></g></g><g
       id="g8902"><g
         id="g8904"><line
           stroke-miterlimit="10"
           x1="83.5"
           y1="57.799999"
           x2="94.457001"
           y2="62.245998"
           id="line8906"
           style="fill:none;stroke:#000000;stroke-miterlimit:10" /><g
           id="g8908"><polygon
             points="101,64.9 90.252,64.927 93.968,62.047 93.309,57.393 "
             id="polygon8910" /></g></g></g></g><g
     id="g8912"
     style="opacity:1"
     transform="translate(-35.224989,-27.75)"><g
       id="g8914"><g
         id="g8916"><line
           stroke-miterlimit="10"
           x1="521"
           y1="58.400002"
           x2="510.11899"
           y2="62.442001"
           id="line8918"
           style="fill:none;stroke:#000000;stroke-miterlimit:10" /><g
           id="g8920"><polygon
             points="503.5,64.9 511.411,57.625 510.614,62.258 514.242,65.246 "
             id="polygon8922" /></g></g></g><g
       id="g8924"><g
         id="g8926"><line
           stroke-miterlimit="10"
           x1="521"
           y1="53.099998"
           x2="510.043"
           y2="48.653999"
           id="line8928"
           style="fill:none;stroke:#000000;stroke-miterlimit:10" /><g
           id="g8930"
           style="opacity:1;fill:#000000"><polygon
             points="503.5,46 514.248,45.973 510.532,48.853 511.191,53.507 "
             id="polygon8932"
             style="fill:#000000" /></g></g></g></g><g
     id="g8934"
     style="opacity:1"
     transform="translate(-35.224989,-27.75)"><g
       id="g8936"><g
         id="g8938"><line
           stroke-miterlimit="10"
           x1="269"
           y1="43.5"
           x2="331.439"
           y2="43.5"
           id="line8940"
           style="fill:none;stroke:#000000;stroke-miterlimit:10" /><g
           id="g8942"><polygon
             points="338.5,43.5 328.551,47.565 330.912,43.5 328.551,39.436 "
             id="polygon8944" /></g></g></g><g
       id="g8946"><g
         id="g8948"><line
           stroke-miterlimit="10"
           x1="336.5"
           y1="33.5"
           x2="274.061"
           y2="33.5"
           id="line8950"
           style="fill:none;stroke:#000000;stroke-miterlimit:10" /><g
           id="g8952"><polygon
             points="267,33.5 276.949,29.435 274.588,33.5 276.949,37.564 "
             id="polygon8954" /></g></g></g></g><g
     id="g8956"
     transform="translate(-35.224989,-27.75)"><g
       id="g8958"><g
         id="g8960"><line
           stroke-miterlimit="10"
           x1="251.021"
           y1="83.5"
           x2="348.939"
           y2="83.5"
           id="line8962"
           style="fill:none;stroke:#000000;stroke-miterlimit:10" /><g
           id="g8964"><polygon
             points="356,83.5 346.051,87.565 348.412,83.5 346.051,79.436 "
             id="polygon8966" /></g></g></g><g
       id="g8968"><g
         id="g8970"><line
           stroke-miterlimit="10"
           x1="352.979"
           y1="73.5"
           x2="255.061"
           y2="73.5"
           id="line8972"
           style="fill:none;stroke:#000000;stroke-miterlimit:10" /><g
           id="g8974"><polygon
             points="248,73.5 257.949,69.435 255.588,73.5 257.949,77.564 "
             id="polygon8976" /></g></g></g></g><g
     id="g8978"
     transform="translate(-35.224989,-27.75)"><g
       id="g8980"><g
         id="g8982"><line
           stroke-miterlimit="10"
           x1="269"
           y1="123.5"
           x2="331.439"
           y2="123.5"
           id="line8984"
           style="fill:none;stroke:#000000;stroke-miterlimit:10" /><g
           id="g8986"><polygon
             points="338.5,123.5 328.551,127.565 330.912,123.5 328.551,119.436 "
             id="polygon8988" /></g></g></g><g
       id="g8990"><g
         id="g8992"><line
           stroke-miterlimit="10"
           x1="336.5"
           y1="113.5"
           x2="274.061"
           y2="113.5"
           id="line8994"
           style="fill:none;stroke:#000000;stroke-miterlimit:10" /><g
           id="g8996"><polygon
             points="267,113.5 276.949,109.435 274.588,113.5 276.949,117.564 "
             id="polygon8998" /></g></g></g></g><g
     id="g9000"
     transform="translate(-35.224989,-27.75)"><g
       id="g9002"><g
         id="g9004"><line
           stroke-miterlimit="10"
           x1="254.373"
           y1="162.5"
           x2="346.418"
           y2="162.5"
           id="line9006"
           style="fill:none;stroke:#000000;stroke-miterlimit:10" /><g
           id="g9008"><polygon
             points="353.479,162.5 343.53,166.565 345.891,162.5 343.53,158.436 "
             id="polygon9010" /></g></g></g><g
       id="g9012"><g
         id="g9014"><line
           stroke-miterlimit="10"
           x1="350.62701"
           y1="152.5"
           x2="258.582"
           y2="152.5"
           id="line9016"
           style="fill:none;stroke:#000000;stroke-miterlimit:10" /><g
           id="g9018"><polygon
             points="251.521,152.5 261.47,148.435 259.109,152.5 261.47,156.564 "
             id="polygon9020" /></g></g></g></g><g
     id="g9066"
     style="opacity:1"
     transform="translate(-35.224989,-27.75)"><g
       id="g9068"><g
         id="g9070"><line
           stroke-miterlimit="10"
           x1="184"
           y1="66.094002"
           x2="184"
           y2="56.910999"
           id="line9072"
           style="fill:none;stroke:#000000;stroke-miterlimit:10" /><g
           id="g9074"><polygon
             points="184,49.85 188.065,59.799 184,57.438 179.936,59.799 "
             id="polygon9076" /></g></g></g><g
       id="g9078"><g
         id="g9080"><line
           stroke-miterlimit="10"
           x1="172.75"
           y1="50.317001"
           x2="172.75"
           y2="59.500999"
           id="line9082"
           style="fill:none;stroke:#000000;stroke-miterlimit:10" /><g
           id="g9084"><polygon
             points="172.75,66.561 168.685,56.612 172.75,58.973 176.814,56.612 "
             id="polygon9086" /></g></g></g></g><g
     id="g9088"
     transform="translate(-35.224989,-27.75)"><g
       id="g9090"><g
         id="g9092"><line
           stroke-miterlimit="10"
           x1="184"
           y1="106.094"
           x2="184"
           y2="96.911003"
           id="line9094"
           style="fill:none;stroke:#000000;stroke-miterlimit:10" /><g
           id="g9096"><polygon
             points="184,89.85 188.065,99.799 184,97.438 179.936,99.799 "
             id="polygon9098" /></g></g></g><g
       id="g9100"><g
         id="g9102"><line
           stroke-miterlimit="10"
           x1="172.75"
           y1="90.317001"
           x2="172.75"
           y2="99.500999"
           id="line9104"
           style="fill:none;stroke:#000000;stroke-miterlimit:10" /><g
           id="g9106"><polygon
             points="172.75,106.561 168.685,96.612 172.75,98.973 176.814,96.612 "
             id="polygon9108" /></g></g></g></g><g
     id="g9110"
     transform="translate(-35.224989,-27.75)"><g
       id="g9112"><g
         id="g9114"><line
           stroke-miterlimit="10"
           x1="184"
           y1="145.09399"
           x2="184"
           y2="135.911"
           id="line9116"
           style="fill:none;stroke:#000000;stroke-miterlimit:10" /><g
           id="g9118"><polygon
             points="184,128.85 188.065,138.799 184,136.438 179.936,138.799 "
             id="polygon9120" /></g></g></g><g
       id="g9122"><g
         id="g9124"><line
           stroke-miterlimit="10"
           x1="172.75"
           y1="129.317"
           x2="172.75"
           y2="138.50101"
           id="line9126"
           style="fill:none;stroke:#000000;stroke-miterlimit:10" /><g
           id="g9128"><polygon
             points="172.75,145.561 168.685,135.612 172.75,137.973 176.814,135.612 "
             id="polygon9130" /></g></g></g></g><g
     id="g9176"
     style="opacity:1"
     transform="translate(-35.224989,-27.75)"><g
       id="g9178"><g
         id="g9180"><line
           stroke-miterlimit="10"
           x1="429"
           y1="66.094002"
           x2="429"
           y2="56.910999"
           id="line9182"
           style="fill:none;stroke:#000000;stroke-miterlimit:10" /><g
           id="g9184"><polygon
             points="429,49.85 433.065,59.799 429,57.438 424.936,59.799 "
             id="polygon9186" /></g></g></g><g
       id="g9188"><g
         id="g9190"><line
           stroke-miterlimit="10"
           x1="417.75"
           y1="50.317001"
           x2="417.75"
           y2="59.500999"
           id="line9192"
           style="fill:none;stroke:#000000;stroke-miterlimit:10" /><g
           id="g9194"><polygon
             points="417.75,66.561 413.685,56.612 417.75,58.973 421.814,56.612 "
             id="polygon9196" /></g></g></g></g><g
     id="g9198"
     transform="translate(-35.224989,-27.75)"><g
       id="g9200"><g
         id="g9202"><line
           stroke-miterlimit="10"
           x1="429"
           y1="106.094"
           x2="429"
           y2="96.911003"
           id="line9204"
           style="fill:none;stroke:#000000;stroke-miterlimit:10" /><g
           id="g9206"><polygon
             points="429,89.85 433.065,99.799 429,97.438 424.936,99.799 "
             id="polygon9208" /></g></g></g><g
       id="g9210"><g
         id="g9212"><line
           stroke-miterlimit="10"
           x1="417.75"
           y1="90.317001"
           x2="417.75"
           y2="99.500999"
           id="line9214"
           style="fill:none;stroke:#000000;stroke-miterlimit:10" /><g
           id="g9216"><polygon
             points="417.75,106.561 413.685,96.612 417.75,98.973 421.814,96.612 "
             id="polygon9218" /></g></g></g></g><g
     id="g9220"
     transform="translate(-35.224989,-27.75)"><g
       id="g9222"><g
         id="g9224"><line
           stroke-miterlimit="10"
           x1="429"
           y1="145.09399"
           x2="429"
           y2="135.911"
           id="line9226"
           style="fill:none;stroke:#000000;stroke-miterlimit:10" /><g
           id="g9228"><polygon
             points="429,128.85 433.065,138.799 429,136.438 424.936,138.799 "
             id="polygon9230" /></g></g></g><g
       id="g9232"><g
         id="g9234"><line
           stroke-miterlimit="10"
           x1="417.75"
           y1="129.317"
           x2="417.75"
           y2="138.50101"
           id="line9236"
           style="fill:none;stroke:#000000;stroke-miterlimit:10" /><g
           id="g9238"><polygon
             points="417.75,145.561 413.685,135.612 417.75,137.973 421.814,135.612 "
             id="polygon9240" /></g></g></g></g><g
     id="g9286"
     style="opacity:1"
     transform="translate(-35.224989,-27.75)"><g
       id="g9288"><g
         id="g9290"><line
           stroke-miterlimit="10"
           x1="308.92599"
           y1="70.497002"
           x2="308.92599"
           y2="52.143002"
           id="line9292"
           style="fill:none;stroke:#000000;stroke-miterlimit:10" /><g
           id="g9294"><polygon
             points="308.926,45.083 312.991,55.032 308.926,52.671 304.862,55.032 "
             id="polygon9296" /></g></g></g><g
       id="g9298"><g
         id="g9300"><line
           stroke-miterlimit="10"
           x1="300.75"
           y1="45.813999"
           x2="300.75"
           y2="64.167"
           id="line9302"
           style="fill:none;stroke:#000000;stroke-miterlimit:10" /><g
           id="g9304"><polygon
             points="300.75,71.228 296.685,61.279 300.75,63.64 304.814,61.279 "
             id="polygon9306" /></g></g></g></g><g
     id="g9308"
     transform="translate(-35.224989,-27.75)"><g
       id="g9310"><g
         id="g9312"><line
           stroke-miterlimit="10"
           x1="308.92599"
           y1="110.497"
           x2="308.92599"
           y2="92.142998"
           id="line9314"
           style="fill:none;stroke:#000000;stroke-miterlimit:10" /><g
           id="g9316"><polygon
             points="308.926,85.083 312.991,95.032 308.926,92.671 304.862,95.032 "
             id="polygon9318" /></g></g></g><g
       id="g9320"><g
         id="g9322"><line
           stroke-miterlimit="10"
           x1="300.75"
           y1="85.814003"
           x2="300.75"
           y2="104.167"
           id="line9324"
           style="fill:none;stroke:#000000;stroke-miterlimit:10" /><g
           id="g9326"><polygon
             points="300.75,111.228 296.685,101.279 300.75,103.64 304.814,101.279 "
             id="polygon9328" /></g></g></g></g><g
     id="g9330"
     transform="translate(-35.224989,-27.75)"><g
       id="g9332"><g
         id="g9334"><line
           stroke-miterlimit="10"
           x1="308.92599"
           y1="150.49699"
           x2="308.92599"
           y2="132.14301"
           id="line9336"
           style="fill:none;stroke:#000000;stroke-miterlimit:10" /><g
           id="g9338"><polygon
             points="308.926,125.083 312.991,135.032 308.926,132.671 304.862,135.032 "
             id="polygon9340" /></g></g></g><g
       id="g9342"><g
         id="g9344"><line
           stroke-miterlimit="10"
           x1="300.75"
           y1="125.814"
           x2="300.75"
           y2="144.16701"
           id="line9346"
           style="fill:none;stroke:#000000;stroke-miterlimit:10" /><g
           id="g9348"><polygon
             points="300.75,151.228 296.685,141.279 300.75,143.64 304.814,141.279 "
             id="polygon9350" /></g></g></g></g><g
     id="g9396"
     transform="translate(-35.224989,-27.75)"><g
       id="g9398"><path
         stroke-miterlimit="10"
         d="m 97.984,97.498 c -7.926,9.293 -9.465,27.688 -2.171,39.171"
         id="path9400"
         style="fill:none;stroke:#000000;stroke-miterlimit:10"
         inkscape:connector-curvature="0" /><g
         id="g9402"><polygon
           points="103.528,93.123 93.275,96.347 97.688,97.968 98.466,102.604 "
           id="polygon9404" /></g><g
         id="g9406"><polygon
           points="100.466,141.977 90.949,136.983 95.58,136.171 97.169,131.748 "
           id="polygon9408" /></g></g></g><g
     id="g9410"
     transform="translate(-35.224989,-27.75)"><g
       id="g9412"><path
         stroke-miterlimit="10"
         d="m 505.651,137.602 c 7.926,-9.293 9.465,-27.688 2.171,-39.171"
         id="path9414"
         style="fill:none;stroke:#000000;stroke-miterlimit:10"
         inkscape:connector-curvature="0" /><g
         id="g9416"><polygon
           points="500.107,141.977 510.36,138.753 505.947,137.132 505.169,132.496 "
           id="polygon9418" /></g><g
         id="g9420"><polygon
           points="503.169,93.123 512.686,98.117 508.056,98.929 506.466,103.352 "
           id="polygon9422" /></g></g></g></svg>