<?xml version="1.0" encoding="UTF-8" standalone="no"?>
<!-- Generator: Adobe Illustrator 17.0.0, SVG Export Plug-In . SVG Version: 6.00 Build 0)  -->

<svg
   xmlns:dc="http://purl.org/dc/elements/1.1/"
   xmlns:cc="http://creativecommons.org/ns#"
   xmlns:rdf="http://www.w3.org/1999/02/22-rdf-syntax-ns#"
   xmlns:svg="http://www.w3.org/2000/svg"
   xmlns="http://www.w3.org/2000/svg"
   xmlns:sodipodi="http://sodipodi.sourceforge.net/DTD/sodipodi-0.dtd"
   xmlns:inkscape="http://www.inkscape.org/namespaces/inkscape"
   version="1.1"
   id="Layer_1"
   x="0px"
   y="0px"
   width="199.5"
   height="140.8"
   viewBox="0 0 199.5 140.8"
   enable-background="new 0 0 612 792"
   xml:space="preserve"
   inkscape:version="0.91 r13725"
   sodipodi:docname="iam-trimmed-more.svg"><metadata
     id="metadata9428"><rdf:RDF><cc:Work
         rdf:about=""><dc:format>image/svg+xml</dc:format><dc:type
           rdf:resource="http://purl.org/dc/dcmitype/StillImage" /><dc:title></dc:title></cc:Work></rdf:RDF></metadata><defs
     id="defs9426" /><sodipodi:namedview
     pagecolor="#ffffff"
     bordercolor="#666666"
     borderopacity="1"
     objecttolerance="10"
     gridtolerance="10"
     guidetolerance="10"
     inkscape:pageopacity="0"
     inkscape:pageshadow="2"
     inkscape:window-width="1920"
     inkscape:window-height="1061"
     id="namedview9424"
     showgrid="false"
     inkscape:zoom="1.6856283"
     inkscape:cx="53.824898"
     inkscape:cy="-0.50881704"
     inkscape:window-x="0"
     inkscape:window-y="0"
     inkscape:window-maximized="0"
     inkscape:current-layer="layer2"
     fit-margin-top="20"
     fit-margin-left="10"
     fit-margin-right="10"
     fit-margin-bottom="20" /><g
     inkscape:groupmode="layer"
     id="layer1"
     inkscape:label="BG"
     style="display:none"
     transform="translate(-61.90625,-39.4)"><rect
       style="opacity:1;fill:#696969;fill-opacity:1"
       id="rect3960"
       width="646.04993"
       height="294.25229"
       x="-26.103025"
       y="-12.115524" /></g><g
     inkscape:groupmode="layer"
     id="layer2"
     inkscape:label="iam"
     style="display:inline"
     transform="translate(-61.90625,-39.4)"><g
       id="g8816"
       transform="translate(-10.84375,-7.75)"><text
         transform="translate(106.562,161.4)"
         font-size="12"
         id="text8818"
         style="font-style:normal;font-variant:normal;font-weight:normal;font-stretch:normal;font-size:12.00000095px;line-height:125%;font-family:'Myriad Pro';-inkscape-font-specification:'Myriad Pro, Normal';text-align:start;writing-mode:lr-tb;text-anchor:start;fill:#ffffff"
         sodipodi:linespacing="125%">Lexical Representation</text>
<path
         stroke-miterlimit="10"
         d="m 241.5,156.95 c 0,5.661 -4.589,10.25 -10.25,10.25 l -137.5,0 c -5.661,0 -10.25,-4.589 -10.25,-10.25 l 0,0 c 0,-5.661 4.589,-10.25 10.25,-10.25 l 137.5,0 c 5.661,0 10.25,4.589 10.25,10.25 l 0,0 z"
         id="path8820"
         style="fill:none;stroke:#ffffff;stroke-width:1.5;stroke-miterlimit:10;stroke-opacity:1"
         inkscape:connector-curvature="0" /></g><g
       id="g8822"
       transform="translate(-10.84375,-7.75)"><text
         transform="translate(120.7121,120.1)"
         font-size="12"
         id="text8824"
         style="font-style:normal;font-variant:normal;font-weight:normal;font-stretch:normal;font-size:12.00000095px;line-height:125%;font-family:'Myriad Pro';-inkscape-font-specification:'Myriad Pro, Normal';text-align:start;writing-mode:lr-tb;text-anchor:start;fill:#ffffff"
         sodipodi:linespacing="125%">Syntactic Representation</text>
<path
         stroke-miterlimit="10"
         d="m 261.5,117.55 c 0,5.661 -4.589,10.25 -10.25,10.25 l -137.5,0 c -5.661,0 -10.25,-4.589 -10.25,-10.25 l 0,0 c 0,-5.661 4.589,-10.25 10.25,-10.25 l 137.5,0 c 5.661,0 10.25,4.589 10.25,10.25 l 0,0 z"
         id="path8826"
         style="fill:none;stroke:#ffffff;stroke-width:1.5;stroke-miterlimit:10;stroke-opacity:1"
         inkscape:connector-curvature="0" /></g><g
       id="g8828"
       transform="translate(-10.84375,-7.75)"><text
         transform="translate(100.196,81.8)"
         font-size="12"
         id="text8830"
         style="font-style:normal;font-variant:normal;font-weight:normal;font-stretch:normal;font-size:12.00000095px;line-height:125%;font-family:'Myriad Pro';-inkscape-font-specification:'Myriad Pro, Normal';text-align:start;writing-mode:lr-tb;text-anchor:start;fill:#ffffff"
         sodipodi:linespacing="125%">Semantic Representation</text>
<path
         stroke-miterlimit="10"
         d="m 241.5,78.15 c 0,5.661 -4.589,10.25 -10.25,10.25 l -137.5,0 C 88.089,88.4 83.5,83.811 83.5,78.15 l 0,0 c 0,-5.661 4.589,-10.25 10.25,-10.25 l 137.5,0 c 5.661,0 10.25,4.589 10.25,10.25 l 0,0 z"
         id="path8832"
         style="fill:none;stroke:#ffffff;stroke-width:1.5;stroke-miterlimit:10;stroke-opacity:1"
         inkscape:connector-curvature="0" /></g><g
       id="g9088"
       transform="translate(-10.84375,-7.75)"><g
         id="g9090"><g
           id="g9092"><line
             stroke-miterlimit="10"
             x1="184"
             y1="106.094"
             x2="184"
             y2="96.911003"
             id="line9094"
             style="fill:none;stroke:#ffffff;stroke-miterlimit:10;stroke-opacity:1" /><g
             id="g9096"><polygon
               points="184,89.85 188.065,99.799 184,97.438 179.936,99.799 "
               id="polygon9098"
               style="fill:#ffffff" /></g></g></g><g
         id="g9100"><g
           id="g9102"><line
             stroke-miterlimit="10"
             x1="172.75"
             y1="90.317001"
             x2="172.75"
             y2="99.500999"
             id="line9104"
             style="fill:none;stroke:#ffffff;stroke-miterlimit:10;stroke-opacity:1" /><g
             id="g9106"><polygon
               points="172.75,106.561 168.685,96.612 172.75,98.973 176.814,96.612 "
               id="polygon9108"
               style="fill:#ffffff" /></g></g></g></g><g
       id="g9110"
       transform="translate(-10.84375,-7.75)"><g
         id="g9112"><g
           id="g9114"><line
             stroke-miterlimit="10"
             x1="184"
             y1="145.09399"
             x2="184"
             y2="135.911"
             id="line9116"
             style="fill:none;stroke:#ffffff;stroke-miterlimit:10;stroke-opacity:1" /><g
             id="g9118"><polygon
               points="184,128.85 188.065,138.799 184,136.438 179.936,138.799 "
               id="polygon9120"
               style="fill:#ffffff" /></g></g></g><g
         id="g9122"><g
           id="g9124"><line
             stroke-miterlimit="10"
             x1="172.75"
             y1="129.317"
             x2="172.75"
             y2="138.50101"
             id="line9126"
             style="fill:none;stroke:#ffffff;stroke-miterlimit:10;stroke-opacity:1" /><g
             id="g9128"><polygon
               points="172.75,145.561 168.685,135.612 172.75,137.973 176.814,135.612 "
               id="polygon9130"
               style="fill:#ffffff" /></g></g></g></g><g
       id="g9396"
       transform="translate(-10.84375,-7.75)"><g
         id="g9398"><path
           stroke-miterlimit="10"
           d="m 97.984,97.498 c -7.926,9.293 -9.465,27.688 -2.171,39.171"
           id="path9400"
           style="fill:none;stroke:#ffffff;stroke-miterlimit:10;stroke-opacity:1"
           inkscape:connector-curvature="0" /><g
           id="g9402"><polygon
             points="103.528,93.123 93.275,96.347 97.688,97.968 98.466,102.604 "
             id="polygon9404"
             style="fill:#ffffff" /></g><g
           id="g9406"><polygon
             points="100.466,141.977 90.949,136.983 95.58,136.171 97.169,131.748 "
             id="polygon9408"
             style="fill:#ffffff" /></g></g></g></g></svg>